<?xml version="1.0" encoding="UTF-8" standalone="no"?>
<svg
   version="1.0"
   width="337.92252pt"
   height="381.87595pt"
   viewBox="0 0 337.92252 381.87595"
   preserveAspectRatio="xMidYMid"
   id="svg6"
   sodipodi:docname="wizard-ai.svg"
   inkscape:version="1.2.2 (b0a8486541, 2022-12-01)"
   xmlns:inkscape="http://www.inkscape.org/namespaces/inkscape"
   xmlns:sodipodi="http://sodipodi.sourceforge.net/DTD/sodipodi-0.dtd"
   xmlns="http://www.w3.org/2000/svg"
   xmlns:svg="http://www.w3.org/2000/svg">
  <defs
     id="defs10" />
  <sodipodi:namedview
     id="namedview8"
     pagecolor="#ffffff"
     bordercolor="#000000"
     borderopacity="0.25"
     inkscape:showpageshadow="2"
     inkscape:pageopacity="0.0"
     inkscape:pagecheckerboard="0"
     inkscape:deskcolor="#d1d1d1"
     inkscape:document-units="pt"
     showgrid="false"
     inkscape:zoom="0.295"
     inkscape:cx="222.0339"
     inkscape:cy="255.9322"
     inkscape:window-width="1280"
     inkscape:window-height="728"
     inkscape:window-x="0"
     inkscape:window-y="0"
     inkscape:window-maximized="1"
     inkscape:current-layer="svg6" />
  <g
     transform="matrix(0.1,0,0,-0.1,-131.07748,491.03577)"
     fill="#000000"
     stroke="none"
     id="g4">
    <path
       d="m 3115,4882 c -110,-52 -249,-220 -354,-428 l -41,-81 -70,-6 c -192,-16 -297,-101 -260,-211 14,-45 98,-121 178,-164 34,-18 62,-37 62,-41 0,-24 -87,-214 -125,-271 -84,-132 -219,-252 -363,-324 -86,-43 -205,-84 -384,-131 -270,-71 -384,-129 -427,-217 -59,-123 12,-232 201,-305 46,-18 153,-51 238,-73 199,-53 273,-80 391,-141 226,-119 373,-300 463,-570 19,-57 55,-198 81,-313 64,-293 98,-385 167,-455 83,-85 205,-78 274,16 62,85 90,164 149,432 53,238 74,313 120,422 71,169 189,318 322,408 134,89 269,142 581,225 260,70 372,152 372,276 0,130 -119,208 -452,296 -352,92 -521,183 -672,360 -50,58 -146,215 -146,237 0,3 23,10 52,16 111,24 181,69 197,128 22,79 -37,161 -172,237 l -84,47 -7,72 c -3,40 -9,90 -13,111 -6,36 -4,39 13,32 41,-16 124,-28 149,-22 44,11 75,50 75,93 0,54 -59,150 -148,239 -133,133 -242,165 -367,106 z m 194,-67 c 35,-17 80,-52 125,-98 71,-72 133,-168 121,-187 -11,-18 -79,-10 -131,14 -39,18 -53,31 -58,52 -10,37 -24,54 -47,54 -31,0 -37,-27 -22,-103 22,-117 43,-286 43,-354 0,-60 -1,-63 -27,-70 -59,-17 -245,-7 -333,16 -90,24 -199,71 -219,95 -16,19 34,138 119,279 130,217 246,325 350,326 14,1 49,-11 79,-24 z m -632,-555 c -2,-50 33,-89 115,-131 104,-53 220,-81 359,-86 185,-8 269,22 269,95 v 23 l 51,-28 c 59,-33 129,-104 129,-132 0,-29 -52,-67 -112,-82 -68,-18 -357,-18 -453,-1 -210,38 -454,134 -535,211 -35,33 -41,45 -38,72 3,28 10,36 49,56 26,12 71,27 100,32 30,5 57,9 61,10 4,0 6,-17 5,-39 z m 113,-358 c 108,-36 247,-61 401,-74 l 146,-12 41,-81 c 90,-182 231,-328 412,-427 102,-56 231,-103 415,-152 198,-52 263,-75 328,-116 92,-58 107,-123 44,-188 -47,-49 -132,-85 -307,-132 -297,-79 -432,-133 -575,-230 -122,-83 -250,-232 -323,-376 -42,-83 -102,-277 -142,-461 -71,-326 -115,-437 -193,-478 l -37,-20 -37,20 c -45,24 -90,95 -120,187 -12,35 -42,158 -68,273 -51,229 -97,379 -146,477 -125,250 -322,419 -609,522 -41,15 -156,49 -255,76 -252,68 -332,107 -371,182 -40,77 44,158 226,216 36,11 128,37 205,57 254,66 420,143 561,264 122,102 232,267 294,439 13,35 28,61 34,59 6,-2 40,-14 76,-25 z"
       id="path2" />
  </g>
</svg>
